<svg width="130" height="128" viewBox="0 0 130 128" fill="none" xmlns="http://www.w3.org/2000/svg">
<path d="M32.9407 22.2666H50.2051C50.2051 22.4826 50.2051 22.6789 50.2051 22.875C50.2077 34.4177 50.1973 45.9604 50.2225 57.504C50.2283 60.3718 50.6801 63.1733 51.833 65.8294C53.2723 69.1416 55.7345 71.3821 59.03 72.7564C60.7217 73.4617 62.4849 73.8783 64.3498 74.0684C64.3015 79.8284 64.2534 85.5645 64.2042 91.3833C63.2699 91.3055 62.3857 91.263 61.5093 91.1525C57.4916 90.6451 53.6592 89.505 50.0491 87.6605C44.1027 84.6222 39.6318 80.0991 36.637 74.1212C34.8359 70.5272 33.7526 66.7049 33.3311 62.7159C33.0958 60.4886 32.9606 58.2404 32.9537 56.0016C32.9175 44.962 32.9398 33.9233 32.9407 22.8837C32.9407 22.6859 32.9407 22.4887 32.9407 22.2666Z" fill="white"/>
<path d="M94.2717 35.05C95.1977 35.5722 96.0488 36.0393 96.8825 36.5366C96.9876 36.5994 97.0435 36.8211 97.0443 36.9701C97.0565 38.3189 97.0521 39.6674 97.0513 41.0153C97.0487 46.7108 97.0996 52.4064 97.0281 58.101C96.9635 63.3045 96.078 68.3667 93.9425 73.1557C91.7289 78.1204 88.3944 82.1603 83.9013 85.2318C79.4911 88.2463 74.5966 90.0086 69.3413 90.8075C68.1817 90.9834 67.0061 91.048 65.8372 91.1609C65.713 91.173 65.5865 91.1626 65.4331 91.1626V88.4289C66.2497 88.3548 67.0481 88.3067 67.8407 88.2075C73.8344 87.457 79.3429 85.4697 84.0805 81.6416C88.956 77.7033 91.8253 72.5204 93.2379 66.475C93.9891 63.2614 94.2682 59.997 94.2699 56.7041C94.2742 49.6891 94.2708 42.6735 94.2708 35.6584C94.2708 35.4871 94.2708 35.3155 94.2708 35.05H94.2717Z" fill="white"/>
<path d="M88.1701 18.8C90.7406 20.7126 93.2786 22.5991 95.8152 24.4871C96.2803 24.8333 96.9223 25.0988 97.1516 25.5618C97.3895 26.0423 97.2328 26.7179 97.2337 27.3079C97.2374 29.8483 97.2354 32.3879 97.2354 34.9283C97.2354 35.0862 97.2354 35.244 97.2354 35.4808C97.0528 35.382 96.918 35.3133 96.7878 35.2379C94.0422 33.6376 91.2942 32.041 88.5557 30.4277C88.2654 30.2567 88.0598 30.2559 87.7695 30.4277C85.0685 32.0193 82.3591 33.5943 79.6512 35.1729C79.4919 35.2656 79.3292 35.3508 79.0904 35.4834V34.9517C79.0904 31.9636 79.095 28.9767 79.0835 25.9886C79.0826 25.6686 79.1736 25.4682 79.4395 25.2712C82.2182 23.2218 84.9855 21.1565 87.7571 19.0958C87.8849 19.0013 88.0151 18.9111 88.1709 18.8H88.1701Z" fill="white"/>
<path d="M89.2638 32.0166C90.2111 32.537 91.0763 33.0083 91.9347 33.4923C92.0038 33.5313 92.0504 33.6514 92.0643 33.7395C92.0859 33.8806 92.0721 34.0266 92.0721 34.1701C92.0747 41.6975 92.0946 49.2256 92.0738 56.7528C92.0617 61.3132 91.484 65.7863 89.7958 70.0637C87.2473 76.5199 82.781 81.1417 76.4718 83.998C73.5815 85.3069 70.5462 86.0858 67.4063 86.4706C66.7665 86.5492 66.1197 86.5674 65.4331 86.6166V83.8736C66.5351 83.7308 67.6188 83.6236 68.6922 83.4446C73.7362 82.6052 78.218 80.5762 81.9477 77.0265C84.0686 75.0089 85.6524 72.6072 86.8198 69.9246C87.9701 67.28 88.6808 64.5162 88.9677 61.6564C89.1481 59.8565 89.243 58.0402 89.25 56.2315C89.2801 48.3732 89.2638 40.5138 89.2638 32.6556C89.2638 32.4749 89.2638 32.2942 89.2638 32.0166Z" fill="white"/>
<path d="M87.0668 32.0166C87.0772 32.2419 87.0911 32.3945 87.0911 32.5464C87.0937 40.6276 87.111 48.708 87.0876 56.7894C87.0772 60.3514 86.6643 63.8625 85.486 67.2546C83.2997 73.5518 79.102 77.9072 72.8793 80.3086C70.6988 81.1494 68.437 81.6506 66.1063 81.8369C65.9486 81.8499 65.7889 81.8491 65.6301 81.8499C65.5746 81.8499 65.5198 81.8361 65.4331 81.8239V79.0922C66.1802 78.9995 66.9264 78.9405 67.6596 78.8105C72.101 78.019 76.0227 76.2203 79.0968 72.8262C80.9473 70.783 82.196 68.3938 83.021 65.7774C83.6526 63.775 84.0465 61.7212 84.1464 59.6275C84.2383 57.6979 84.2565 55.7639 84.2601 53.8315C84.2731 47.2942 84.2705 40.7576 84.2539 34.2203C84.253 33.746 84.3624 33.4626 84.8135 33.2477C85.5632 32.8904 86.2747 32.4554 87.0651 32.0175L87.0668 32.0166Z" fill="white"/>
<path d="M81.8866 34.8333C81.8866 35.1041 81.8866 35.2607 81.8866 35.4183C81.8889 42.5206 81.9156 49.6229 81.8857 56.7253C81.871 60.1139 81.4225 63.44 80.0986 66.5975C78.2045 71.1134 74.9894 74.2217 70.406 75.8823C68.9604 76.4057 67.4722 76.7214 65.9453 76.8599C65.7908 76.8737 65.6331 76.8616 65.4331 76.8616V74.2467C66.8202 73.9015 68.2056 73.6688 69.5147 73.211C73.2968 71.888 75.9443 69.2999 77.5073 65.5887C78.6695 62.8275 79.0762 59.9209 79.0822 56.9443C79.0959 50.2313 79.0994 43.5183 79.1147 36.8062C79.1147 36.6686 79.168 36.4635 79.2649 36.403C80.0995 35.8837 80.9497 35.3905 81.8881 34.8341L81.8866 34.8333Z" fill="white"/>
<path d="M76.9167 98.0266C76.7698 98.6164 76.7027 99.2402 76.4609 99.7894C75.8772 101.115 74.4346 101.761 72.8022 101.515C71.2808 101.287 70.2547 100.292 70.0506 98.8203C69.9134 97.8334 69.9548 96.8623 70.4742 95.9696C71.2074 94.7095 72.6491 94.1717 74.32 94.5214C75.656 94.8009 76.6355 95.9029 76.785 97.3025C76.8101 97.5346 76.8147 97.7692 76.829 98.0021C76.8585 98.0099 76.8873 98.018 76.9167 98.0266ZM75.3684 97.9881C75.3336 97.7138 75.321 97.4195 75.2549 97.1366C75.0372 96.1988 74.396 95.6901 73.4551 95.6823C72.4781 95.6734 71.7653 96.1611 71.5924 97.1032C71.4869 97.6778 71.484 98.3035 71.5961 98.8755C71.7787 99.8133 72.5193 100.322 73.4603 100.309C74.3683 100.296 75.0309 99.7552 75.2475 98.8289C75.3104 98.5601 75.3273 98.2814 75.3676 97.9872L75.3684 97.9881Z" fill="white"/>
<path d="M78.4331 97.9951C78.5534 97.4426 78.6056 96.8646 78.806 96.3435C79.3321 94.9731 80.6648 94.2622 82.2259 94.4451C83.7835 94.6277 84.8532 95.5845 85.0718 97.0613C85.1519 97.6034 85.1814 98.1752 85.1067 98.7147C84.8365 100.655 83.3748 101.758 81.4437 101.539C79.5665 101.327 78.5055 100.051 78.434 97.9951H78.4331ZM83.7703 97.967C83.7016 97.5945 83.6676 97.2422 83.5683 96.9092C83.3417 96.1494 82.7355 95.7039 81.9533 95.6794C81.0699 95.6512 80.4017 96.0493 80.1344 96.818C79.8627 97.5997 79.8564 98.3992 80.1534 99.1786C80.4323 99.9096 81.0916 100.32 81.9 100.304C82.6754 100.289 83.3051 99.8515 83.5438 99.1038C83.6624 98.7331 83.6998 98.336 83.7711 97.9661L83.7703 97.967Z" fill="white"/>
<path d="M54.8188 99.1706C55.2335 99.1162 55.6552 99.0601 56.1028 99.0011C56.1366 99.0731 56.1713 99.1337 56.1936 99.1985C56.5299 100.169 57.3974 100.571 58.3806 100.2C58.7524 100.06 59.0211 99.8037 59.0328 99.395C59.0451 98.9715 58.7292 98.7856 58.3681 98.682C57.715 98.4944 57.0494 98.3444 56.4044 98.1338C55.7176 97.9094 55.2227 97.4587 55.0626 96.7385C54.8721 95.8835 55.3152 95.0433 56.1498 94.7057C57.109 94.3181 58.0914 94.3233 59.0514 94.704C59.8059 95.003 60.242 95.7037 60.2268 96.5474C60.0017 96.5632 59.7712 96.5799 59.54 96.5966C59.321 96.6122 59.1013 96.628 58.8939 96.6429C58.4643 95.723 57.7274 95.4188 56.8377 95.8125C56.6544 95.8939 56.4365 96.129 56.4285 96.3019C56.4204 96.472 56.6224 96.7376 56.7977 96.813C57.2284 96.9963 57.6964 97.0938 58.1501 97.2271C58.4757 97.3226 58.8094 97.3989 59.1253 97.5209C60.0604 97.8803 60.4821 98.5321 60.4483 99.524C60.419 100.389 59.8763 101.097 58.9962 101.365C58.1412 101.625 57.2719 101.639 56.4142 101.375C55.4372 101.072 54.7762 100.159 54.8188 99.1714V99.1706Z" fill="white"/>
<path d="M44.6143 94.6333H45.8883C45.9048 94.7076 45.9334 94.7757 45.9334 94.8437C45.9195 96.3978 45.9269 97.9531 45.8777 99.5064C45.8407 100.674 45.2086 101.42 44.1134 101.535C43.4749 101.601 42.7993 101.566 42.1755 101.412C41.4269 101.228 40.9236 100.621 40.8786 99.7954C40.785 98.0891 40.7769 96.377 40.7334 94.6385H42.109C42.109 94.7984 42.109 94.9529 42.109 95.1065C42.109 96.4145 42.1016 97.7225 42.1114 99.0306C42.1205 100.132 42.7813 100.67 43.7945 100.422C44.2627 100.308 44.548 100.003 44.5643 99.4355C44.6046 98.0272 44.6011 96.618 44.6143 95.2096C44.6161 95.0253 44.6143 94.8411 44.6143 94.6342V94.6333Z" fill="white"/>
<path d="M53.3 101.35C51.5495 101.35 49.8396 101.35 48.1299 101.349C48.0627 101.349 47.9958 101.335 47.9158 101.325C47.8419 100.61 47.853 99.9897 48.3975 99.3997C49.3463 98.373 50.1973 97.2567 51.0883 96.1762C51.1842 96.0598 51.275 95.9383 51.4152 95.7598H48.3262V94.6333H53.1505C53.2177 95.2198 53.232 95.7316 52.7828 96.2366C51.7491 97.3977 50.7867 98.6219 49.7963 99.8214C49.709 99.9269 49.6281 100.038 49.4958 100.21H53.3V101.349V101.35Z" fill="white"/>
<path d="M68.2463 96.5054C67.7918 96.5916 67.3619 96.6737 66.9084 96.7599C66.8631 96.6746 66.8213 96.6011 66.7849 96.5268C66.4671 95.8881 65.9993 95.6205 65.257 95.6532C64.592 95.6827 64.0265 96.0729 63.8222 96.6925C63.5631 97.4799 63.5746 98.2809 63.8276 99.0663C64.0363 99.7155 64.6001 100.094 65.2971 100.112C65.9913 100.129 66.4972 99.7993 66.7706 99.1502C66.8311 99.0059 66.8835 98.8583 66.9572 98.6651C67.402 98.8057 67.8299 98.9405 68.2498 99.0733C68.0056 100.568 66.6757 101.495 65.067 101.331C63.5178 101.174 62.4284 100.152 62.2384 98.6443C62.0787 97.3737 62.2234 96.1782 63.2275 95.2166C64.4313 94.0624 67.4003 93.9727 68.169 96.1877C68.2011 96.2791 68.216 96.3749 68.2472 96.5062L68.2463 96.5054Z" fill="white"/>
<path d="M87.1001 94.6333H88.4415V100.223H91.8668V101.35H87.1001V94.6333Z" fill="white"/>
<path d="M57.3535 104.303C57.3535 105.153 57.3543 106.003 57.3526 106.852C57.3526 106.972 57.3589 107.101 57.3212 107.21C57.2986 107.275 57.2009 107.334 57.1275 107.35C57.0952 107.357 57.0352 107.253 56.9947 107.195C56.9795 107.173 56.984 107.135 56.984 107.105C56.9895 105.891 56.9949 104.677 57.0029 103.463C57.0029 103.438 57.0343 103.413 57.1112 103.3C57.2432 103.432 57.3849 103.539 57.4806 103.678C58.0232 104.459 58.5549 105.247 59.092 106.032C59.1735 106.151 59.2632 106.265 59.4371 106.501C59.4371 105.567 59.4237 104.771 59.446 103.976C59.4514 103.767 59.5663 103.562 59.6308 103.356C59.6863 103.555 59.786 103.752 59.7894 103.952C59.8066 104.923 59.7985 105.896 59.7957 106.867C59.7957 107.026 59.7751 107.184 59.7643 107.343C59.7106 107.367 59.6568 107.392 59.6031 107.417C58.8849 106.366 58.1675 105.315 57.4494 104.264C57.4172 104.277 57.3857 104.291 57.3535 104.303Z" fill="white"/>
<path d="M66.5166 107.413V103.517C67.2522 103.517 67.9691 103.513 68.6861 103.524C68.7576 103.525 68.8284 103.628 68.8991 103.684C68.8258 103.753 68.7541 103.876 68.6783 103.879C68.2393 103.899 67.7995 103.89 67.3596 103.891C67.2071 103.891 67.0552 103.891 66.8763 103.891V105.098C67.4143 105.098 67.9221 105.086 68.4293 105.107C68.5513 105.112 68.669 105.225 68.7892 105.289C68.6681 105.352 68.5487 105.463 68.4261 105.467C67.9197 105.487 67.4117 105.476 66.8763 105.476V107.035C67.4424 107.035 67.9784 107.025 68.513 107.043C68.6434 107.048 68.7712 107.147 68.8999 107.204C68.7704 107.273 68.6425 107.4 68.5112 107.404C67.8608 107.425 67.2089 107.414 66.5175 107.414L66.5166 107.413Z" fill="white"/>
<path d="M72.1885 103.518C72.5772 103.546 73.0058 103.672 73.2359 104.134C73.2766 104.215 73.2333 104.337 73.2289 104.441C73.1323 104.404 72.9934 104.394 72.9481 104.324C72.6719 103.9 72.262 103.856 71.8202 103.909C71.5262 103.944 71.2163 104.065 71.2384 104.389C71.2534 104.603 71.4358 104.88 71.6254 104.992C71.9866 105.207 72.4108 105.313 72.8012 105.482C73.3156 105.705 73.5396 106.087 73.4174 106.599C73.3706 106.795 73.243 107.014 73.0855 107.138C72.439 107.642 71.3756 107.435 70.9524 106.737C70.8905 106.635 70.9152 106.481 70.8991 106.352C71.0072 106.41 71.1489 106.444 71.2189 106.532C71.5944 107.005 72.1274 107.182 72.6658 106.929C72.8374 106.848 73.0359 106.633 73.05 106.465C73.0651 106.277 72.9384 105.988 72.7809 105.893C72.4223 105.675 71.9848 105.585 71.6208 105.372C71.3463 105.212 71.033 104.986 70.9178 104.714C70.6441 104.068 71.2269 103.51 72.1885 103.517V103.518Z" fill="white"/>
<path d="M61.9661 103.517C62.2969 104.571 62.6276 105.626 62.9965 106.8C63.3224 105.631 63.6158 104.577 63.9091 103.524C63.9672 103.53 64.0246 103.535 64.0829 103.541C64.0985 103.673 64.1551 103.817 64.1243 103.936C63.8485 104.993 63.5642 106.048 63.2635 107.097C63.2277 107.222 63.0797 107.311 62.9842 107.417C62.896 107.317 62.7638 107.233 62.7274 107.116C62.3957 106.061 62.0783 105.001 61.7665 103.941C61.7325 103.824 61.7615 103.686 61.7615 103.559C61.8298 103.545 61.8978 103.531 61.9661 103.517Z" fill="white"/>
<path d="M77.0931 103.895C77.0931 104.9 77.0931 105.841 77.0931 106.782C77.0931 106.9 77.1158 107.025 77.0848 107.133C77.0549 107.238 76.9698 107.323 76.9089 107.417C76.8586 107.325 76.7704 107.238 76.7646 107.144C76.746 106.836 76.7557 106.525 76.7557 106.216C76.7557 105.466 76.7557 104.715 76.7557 103.897C76.4517 103.897 76.1738 103.913 75.8973 103.888C75.8 103.879 75.7099 103.774 75.6167 103.713C75.7051 103.648 75.7926 103.53 75.8819 103.528C76.5839 103.512 77.2859 103.513 77.9881 103.528C78.065 103.529 78.1404 103.642 78.2167 103.704C78.1428 103.768 78.0724 103.881 77.9946 103.887C77.714 103.909 77.4311 103.896 77.0913 103.896L77.0931 103.895Z" fill="white"/>
<path d="M54.5964 105.453C54.5964 105.999 54.6094 106.546 54.5854 107.09C54.5804 107.201 54.4339 107.308 54.3527 107.417C54.2916 107.309 54.1783 107.202 54.1763 107.095C54.1631 106.003 54.1631 104.912 54.1772 103.82C54.1783 103.719 54.3046 103.618 54.3728 103.517C54.4469 103.616 54.5813 103.714 54.5854 103.816C54.6064 104.361 54.5953 104.907 54.5964 105.452V105.453Z" fill="white"/>
</svg>

