<svg width="48" height="48" viewBox="0 0 48 48" fill="none" xmlns="http://www.w3.org/2000/svg"><path fill-rule="evenodd" clip-rule="evenodd" d="M24 48c13.255 0 24-10.745 24-24S37.255 0 24 0 0 10.745 0 24s10.745 24 24 24Zm.326-40c-6.382 0-11.903 3.585-14.59 8.815a15.734 15.734 0 0 0 0 14.37C12.424 36.415 17.945 40 24.327 40c4.409 0 8.104-1.433 10.806-3.876C38.219 33.338 40 29.236 40 24.364a18.02 18.02 0 0 0-.297-3.273H24.326v6.189h8.787c-.378 2-1.529 3.695-3.258 4.83-1.462.96-3.332 1.526-5.529 1.526-4.252 0-7.851-2.814-9.135-6.596A9.441 9.441 0 0 1 14.68 24c0-1.055.185-2.08.512-3.04 1.284-3.782 4.883-6.596 9.135-6.596 2.397 0 4.55.807 6.242 2.392l4.683-4.589C32.422 9.586 28.727 8 24.327 8Z" fill="#B34747"/></svg>